<svg width="64" height="58" viewBox="0 0 64 58" fill="none" xmlns="http://www.w3.org/2000/svg">
<path d="M32.7916 17.3025L33.2876 17.3658L32.7916 17.3025ZM60.218 57.3182L63.0866 52.3077L57.3132 52.3287L60.218 57.3182ZM0.368419 1.1642C3.29098 1.46395 6.96 1.601 10.6736 1.89308C14.4169 2.18749 18.2622 2.6418 21.6661 3.57686C25.0752 4.51332 27.9868 5.91764 29.9152 8.07317C31.8251 10.2079 32.8196 13.1347 32.2957 17.2392L33.2876 17.3658C33.8427 13.0176 32.7915 9.78839 30.6605 7.40641C28.548 5.04519 25.4236 3.57199 21.931 2.61258C18.4334 1.65177 14.5117 1.19186 10.752 0.896159C6.96264 0.598122 3.39287 0.469154 0.470448 0.169418L0.368419 1.1642ZM32.2957 17.2392C31.9667 19.8156 31.1886 21.5236 30.1997 22.5844C29.22 23.6352 27.996 24.0921 26.6726 24.1017C23.9831 24.1213 20.8823 22.2821 18.9011 19.7484C16.918 17.2123 16.2059 14.1957 17.8874 11.8393C19.6056 9.43141 23.9691 7.46139 32.7916 7.46139V6.46139C23.9171 6.46139 19.0949 8.4255 17.0734 11.2584C15.0151 14.1428 16.0094 17.6737 18.1133 20.3644C20.2191 23.0574 23.5861 25.1243 26.6799 25.1017C28.2481 25.0903 29.7445 24.539 30.9311 23.2663C32.1083 22.0035 32.9421 20.0724 33.2876 17.3658L32.2957 17.2392ZM32.7916 7.46139C38.3941 7.46139 42.8297 8.88665 46.347 11.3493C49.8682 13.8148 52.5021 17.3434 54.4581 21.6005C58.3776 30.1314 59.5391 41.506 59.7018 52.8258L60.7017 52.8115C60.5387 41.4694 59.3789 29.9153 55.3667 21.183C53.3569 16.8086 50.6222 13.122 46.9205 10.5302C43.2148 7.93555 38.573 6.46139 32.7916 6.46139V7.46139Z" fill="black"/>
</svg>
