<svg width="108" height="109" viewBox="0 0 108 109" fill="none" xmlns="http://www.w3.org/2000/svg">
<g filter="url(#filter0_d_43_42)">
<rect x="20.1089" y="14.5887" width="67.5792" height="67.5792" rx="14" fill="#FF512B"/>
</g>
<path d="M53.9027 36.0872C51.7703 36.0864 49.6744 36.6405 47.8209 37.6949C45.9674 38.7494 44.4202 40.2679 43.3311 42.1012C42.2421 43.9346 41.6488 46.0197 41.6095 48.1518C41.5702 50.2838 42.0863 52.3894 43.107 54.2616L41.6525 59.3625C41.6014 59.5416 41.6 59.7313 41.6486 59.9111C41.6972 60.0909 41.7939 60.2541 41.9283 60.383C42.0628 60.512 42.2298 60.6018 42.4115 60.6429C42.5932 60.684 42.7827 60.6747 42.9595 60.6162L47.7489 59.0204C49.3813 59.9637 51.2088 60.5188 53.0901 60.6428C54.9713 60.7668 56.8559 60.4564 58.598 59.7356C60.3401 59.0147 61.893 57.9028 63.1366 56.4858C64.3802 55.0688 65.2812 53.3847 65.7698 51.5637C66.2584 49.7428 66.3216 47.8339 65.9544 45.9847C65.5872 44.1354 64.7996 42.3954 63.6524 40.8993C62.5052 39.4032 61.0292 38.191 59.3386 37.3566C57.6479 36.5221 55.788 36.0878 53.9027 36.0872ZM49.8057 46.3298C49.8057 46.0581 49.9136 45.7976 50.1056 45.6055C50.2977 45.4134 50.5583 45.3055 50.8299 45.3055H56.9755C57.2471 45.3055 57.5077 45.4134 57.6997 45.6055C57.8918 45.7976 57.9997 46.0581 57.9997 46.3298C57.9997 46.6014 57.8918 46.8619 57.6997 47.054C57.5077 47.2461 57.2471 47.354 56.9755 47.354H50.8299C50.5583 47.354 50.2977 47.2461 50.1056 47.054C49.9136 46.8619 49.8057 46.6014 49.8057 46.3298ZM50.8299 49.4026H54.927C55.1986 49.4026 55.4591 49.5105 55.6512 49.7026C55.8433 49.8946 55.9512 50.1552 55.9512 50.4268C55.9512 50.6985 55.8433 50.959 55.6512 51.1511C55.4591 51.3432 55.1986 51.4511 54.927 51.4511H50.8299C50.5583 51.4511 50.2977 51.3432 50.1056 51.1511C49.9136 50.959 49.8057 50.6985 49.8057 50.4268C49.8057 50.1552 49.9136 49.8946 50.1056 49.7026C50.2977 49.5105 50.5583 49.4026 50.8299 49.4026Z" fill="white"/>
<defs>
<filter id="filter0_d_43_42" x="0.108887" y="0.588684" width="107.579" height="107.579" filterUnits="userSpaceOnUse" color-interpolation-filters="sRGB">
<feFlood flood-opacity="0" result="BackgroundImageFix"/>
<feColorMatrix in="SourceAlpha" type="matrix" values="0 0 0 0 0 0 0 0 0 0 0 0 0 0 0 0 0 0 127 0" result="hardAlpha"/>
<feOffset dy="6"/>
<feGaussianBlur stdDeviation="10"/>
<feComposite in2="hardAlpha" operator="out"/>
<feColorMatrix type="matrix" values="0 0 0 0 1 0 0 0 0 1 0 0 0 0 1 0 0 0 0.15 0"/>
<feBlend mode="normal" in2="BackgroundImageFix" result="effect1_dropShadow_43_42"/>
<feBlend mode="normal" in="SourceGraphic" in2="effect1_dropShadow_43_42" result="shape"/>
</filter>
</defs>
</svg>
