<svg width="38" height="38" viewBox="0 0 38 38" fill="none" xmlns="http://www.w3.org/2000/svg">
<rect x="0.825195" y="0.415436" width="37.1294" height="37.1294" rx="9" fill="#870EFF"/>
<path d="M14.1744 27.0026C13.7049 27.0026 13.3032 26.8356 12.9692 26.5016C12.6351 26.1676 12.4679 25.7655 12.4673 25.2955V16.7602C12.4673 16.2907 12.6346 15.889 12.9692 15.555C13.3038 15.2209 13.7055 15.0537 14.1744 15.0531H15.0279V13.346C15.0279 12.1653 15.4441 11.159 16.2766 10.327C17.1091 9.49513 18.1154 9.07889 19.2956 9.07832C20.4757 9.07775 21.4823 9.494 22.3154 10.327C23.1484 11.1601 23.5644 12.1664 23.5633 13.346V15.0531H24.4168C24.8862 15.0531 25.2883 15.2204 25.6228 15.555C25.9574 15.8895 26.1244 16.2913 26.1239 16.7602V25.2955C26.1239 25.765 25.9569 26.167 25.6228 26.5016C25.2888 26.8362 24.8868 27.0032 24.4168 27.0026H14.1744ZM19.2956 22.7349C19.765 22.7349 20.167 22.5679 20.5016 22.2339C20.8362 21.8999 21.0032 21.4979 21.0027 21.0278C21.0021 20.5578 20.8351 20.1561 20.5016 19.8226C20.1682 19.4892 19.7662 19.3219 19.2956 19.3208C18.825 19.3196 18.4233 19.4869 18.0904 19.8226C17.7575 20.1584 17.5902 20.5601 17.5885 21.0278C17.5868 21.4956 17.7541 21.8976 18.0904 22.2339C18.4267 22.5702 18.8284 22.7372 19.2956 22.7349ZM16.735 15.0531H21.8562V13.346C21.8562 12.6347 21.6072 12.0301 21.1093 11.5322C20.6114 11.0343 20.0069 10.7854 19.2956 10.7854C18.5843 10.7854 17.9797 11.0343 17.4818 11.5322C16.9839 12.0301 16.735 12.6347 16.735 13.346V15.0531Z" fill="white"/>
</svg>
