<svg width="108" height="108" viewBox="0 0 108 108" fill="none" xmlns="http://www.w3.org/2000/svg">
<g filter="url(#filter0_d_43_39)">
<rect x="20.3481" y="4.41412" width="67.5792" height="67.5792" rx="14" fill="#870EFF"/>
</g>
<path fill-rule="evenodd" clip-rule="evenodd" d="M57.6412 23.9793C58.0477 23.9793 58.4376 24.1408 58.725 24.4283C59.0125 24.7157 59.174 25.1056 59.174 25.5121V27.9401H61.2893C62.1023 27.9401 62.8821 28.2631 63.457 28.838C64.0319 29.4129 64.3549 30.1926 64.3549 31.0057V33.123H66.8462C67.2527 33.123 67.6426 33.2845 67.93 33.5719C68.2175 33.8594 68.379 34.2493 68.379 34.6558C68.379 35.0623 68.2175 35.4522 67.93 35.7396C67.6426 36.0271 67.2527 36.1886 66.8462 36.1886H64.3528V40.133H66.8462C67.2527 40.133 67.6426 40.2945 67.93 40.582C68.2175 40.8694 68.379 41.2593 68.379 41.6658C68.379 42.0723 68.2175 42.4622 67.93 42.7497C67.6426 43.0371 67.2527 43.1986 66.8462 43.1986H64.3528V45.3098C64.3528 46.1228 64.0298 46.9026 63.4549 47.4775C62.88 48.0524 62.1003 48.3754 61.2872 48.3754H59.176V50.8953C59.176 51.3018 59.0145 51.6917 58.7271 51.9792C58.4396 52.2666 58.0498 52.4281 57.6432 52.4281C57.2367 52.4281 56.8468 52.2666 56.5594 51.9792C56.2719 51.6917 56.1104 51.3018 56.1104 50.8953V48.3754H52.166V50.8953C52.166 51.3018 52.0045 51.6917 51.7171 51.9792C51.4296 52.2666 51.0397 52.4281 50.6332 52.4281C50.2267 52.4281 49.8368 52.2666 49.5494 51.9792C49.2619 51.6917 49.1004 51.3018 49.1004 50.8953V48.3754H46.9851C46.1721 48.3754 45.3923 48.0524 44.8174 47.4775C44.2425 46.9026 43.9195 46.1228 43.9195 45.3098V43.1966H41.4303C41.0237 43.1966 40.6339 43.0351 40.3464 42.7476C40.059 42.4602 39.8975 42.0703 39.8975 41.6638C39.8975 41.2572 40.059 40.8674 40.3464 40.5799C40.6339 40.2925 41.0237 40.131 41.4303 40.131H43.9195V36.1865H41.4303C41.0237 36.1865 40.6339 36.0251 40.3464 35.7376C40.059 35.4501 39.8975 35.0603 39.8975 34.6537C39.8975 34.2472 40.059 33.8573 40.3464 33.5699C40.6339 33.2824 41.0237 33.1209 41.4303 33.1209H43.9195V31.0077C43.9195 30.1947 44.2425 29.4149 44.8174 28.84C45.3923 28.2651 46.1721 27.9421 46.9851 27.9421H49.1004V25.5121C49.1004 25.1056 49.2619 24.7157 49.5494 24.4283C49.8368 24.1408 50.2267 23.9793 50.6332 23.9793C51.0397 23.9793 51.4296 24.1408 51.7171 24.4283C52.0045 24.7157 52.166 25.1056 52.166 25.5121V27.9401H56.1104V25.5121C56.1104 25.1056 56.2719 24.7157 56.5594 24.4283C56.8468 24.1408 57.2367 23.9793 57.6432 23.9793H57.6412ZM52.5911 33.2333C52.9508 31.5902 55.2888 31.58 55.6628 33.2211L55.6792 33.2926L55.7119 33.4357C55.904 34.2526 56.3318 34.9951 56.9422 35.5709C57.5526 36.1468 58.3187 36.5307 59.1454 36.675C60.8621 36.9734 60.8621 39.434 59.1454 39.7324C58.3139 39.8777 57.5438 40.2653 56.9318 40.8467C56.3199 41.4281 55.8933 42.1774 55.7058 43.0004L55.6628 43.1863C55.2888 44.8275 52.9508 44.8152 52.5911 43.1741L52.5543 43.0126C52.3736 42.187 51.9511 41.4339 51.3407 40.8493C50.7303 40.2648 49.9596 39.8752 49.127 39.7304C47.4143 39.432 47.4143 36.9754 49.127 36.677C49.9567 36.5326 50.725 36.1451 51.3344 35.5638C51.9438 34.9824 52.3669 34.2332 52.5502 33.4112L52.5768 33.2947L52.5911 33.2333Z" fill="white"/>
<defs>
<filter id="filter0_d_43_39" x="0.348145" y="0.414124" width="107.579" height="107.579" filterUnits="userSpaceOnUse" color-interpolation-filters="sRGB">
<feFlood flood-opacity="0" result="BackgroundImageFix"/>
<feColorMatrix in="SourceAlpha" type="matrix" values="0 0 0 0 0 0 0 0 0 0 0 0 0 0 0 0 0 0 127 0" result="hardAlpha"/>
<feOffset dy="16"/>
<feGaussianBlur stdDeviation="10"/>
<feComposite in2="hardAlpha" operator="out"/>
<feColorMatrix type="matrix" values="0 0 0 0 0.695833 0 0 0 0 0.695833 0 0 0 0 0.695833 0 0 0 0.15 0"/>
<feBlend mode="normal" in2="BackgroundImageFix" result="effect1_dropShadow_43_39"/>
<feBlend mode="normal" in="SourceGraphic" in2="effect1_dropShadow_43_39" result="shape"/>
</filter>
</defs>
</svg>
