<svg width="1920" height="1184" viewBox="0 0 1920 1184" fill="none" xmlns="http://www.w3.org/2000/svg">
<path d="M61.9824 1183.24V-9.07452" stroke="black" stroke-opacity="0.09" stroke-width="0.66882"/>
<path d="M224.911 1183.24V-9.07452" stroke="black" stroke-opacity="0.09" stroke-width="0.66882"/>
<path d="M387.84 1183.24V-9.07452" stroke="black" stroke-opacity="0.09" stroke-width="0.66882"/>
<path d="M550.769 1183.24V-9.07452" stroke="black" stroke-opacity="0.09" stroke-width="0.66882"/>
<path d="M713.698 1183.24V-9.07452" stroke="black" stroke-opacity="0.09" stroke-width="0.66882"/>
<path d="M876.627 1183.24V-9.07452" stroke="black" stroke-opacity="0.09" stroke-width="0.66882"/>
<path d="M1039.56 1183.24V-9.07452" stroke="black" stroke-opacity="0.09" stroke-width="0.66882"/>
<path d="M1202.48 1183.24V-9.07452" stroke="black" stroke-opacity="0.09" stroke-width="0.66882"/>
<path d="M1365.41 1183.24V-9.07452" stroke="black" stroke-opacity="0.09" stroke-width="0.66882"/>
<path d="M1528.34 1183.24V-9.07452" stroke="black" stroke-opacity="0.09" stroke-width="0.66882"/>
<path d="M1691.27 1183.24V-9.07452" stroke="black" stroke-opacity="0.09" stroke-width="0.66882"/>
<path d="M1854.2 1183.24V-9.07452" stroke="black" stroke-opacity="0.09" stroke-width="0.66882"/>
<path d="M2017.13 153.854L-100.947 153.854" stroke="black" stroke-opacity="0.09" stroke-width="0.66882"/>
<path d="M2017.13 316.783L-100.947 316.783" stroke="black" stroke-opacity="0.09" stroke-width="0.66882"/>
<path d="M2017.13 479.712L-100.947 479.712" stroke="black" stroke-opacity="0.09" stroke-width="0.66882"/>
<path d="M2017.13 642.64L-100.947 642.641" stroke="black" stroke-opacity="0.09" stroke-width="0.66882"/>
<path d="M2017.13 805.569L-100.947 805.569" stroke="black" stroke-opacity="0.09" stroke-width="0.66882"/>
<path d="M2017.13 968.498L-100.947 968.498" stroke="black" stroke-opacity="0.09" stroke-width="0.66882"/>
<path d="M2017.13 1131.43L-100.947 1131.43" stroke="black" stroke-opacity="0.09" stroke-width="0.66882"/>
</svg>
