<svg width="108" height="108" viewBox="0 0 108 108" fill="none" xmlns="http://www.w3.org/2000/svg">
<g filter="url(#filter0_d_43_36)">
<rect x="20.3423" y="14.4281" width="67.5792" height="67.5792" rx="14" fill="#0038FF"/>
</g>
<path d="M64.2551 52.376C64.7824 51.0955 65.0686 49.7247 65.0686 48.2183C65.0686 47.1337 64.9029 46.0942 64.6167 45.1301C63.6375 45.3561 62.6131 45.4766 61.5436 45.4766C59.3532 45.4789 57.1944 44.9547 55.2491 43.9479C53.3038 42.9412 51.629 41.4815 50.366 39.692C49.0162 42.962 46.467 45.5921 43.2406 47.0433C43.1804 47.4199 43.1804 47.8266 43.1804 48.2183C43.1804 49.6565 43.4637 51.0806 44.014 52.4093C44.5644 53.738 45.3711 54.9453 46.388 55.9622C48.4419 58.0161 51.2275 59.1699 54.132 59.1699C55.7138 59.1699 57.2352 58.8234 58.6061 58.2058C59.4647 59.8478 59.8564 60.6613 59.8263 60.6613C57.3558 61.4898 55.4426 61.8965 54.132 61.8965C50.4865 61.8965 47.0067 60.4654 44.4458 57.8895C42.8867 56.3377 41.7286 54.43 41.0714 52.3308H39.0679V45.4766H40.7099C41.2073 43.0551 42.3511 40.8133 44.0197 38.9894C45.6884 37.1654 47.8197 35.8271 50.1875 35.1166C52.5553 34.4061 55.0713 34.3499 57.4685 34.9538C59.8657 35.5578 62.0547 36.7995 63.8032 38.5471C65.701 40.4385 66.9957 42.8498 67.5241 45.4766H69.1962V52.3308H69.1058L63.743 57.2568L55.759 56.3529V53.8372H63.0349L64.2551 52.376ZM50.0195 47.8718C50.4714 47.8718 50.9083 48.0526 51.2246 48.384C51.5426 48.7045 51.721 49.1377 51.721 49.5891C51.721 50.0406 51.5426 50.4737 51.2246 50.7942C50.9083 51.1106 50.4714 51.2914 50.0195 51.2914C49.0705 51.2914 48.3022 50.5381 48.3022 49.5891C48.3022 48.6401 49.0705 47.8718 50.0195 47.8718ZM58.2295 47.8718C59.1785 47.8718 59.9317 48.6401 59.9317 49.5891C59.9317 50.5381 59.1785 51.2914 58.2295 51.2914C57.2804 51.2914 56.5122 50.5381 56.5122 49.5891C56.5122 49.1336 56.6931 48.6968 57.0151 48.3748C57.3372 48.0527 57.774 47.8718 58.2295 47.8718Z" fill="white"/>
<defs>
<filter id="filter0_d_43_36" x="0.342285" y="0.428101" width="107.579" height="107.579" filterUnits="userSpaceOnUse" color-interpolation-filters="sRGB">
<feFlood flood-opacity="0" result="BackgroundImageFix"/>
<feColorMatrix in="SourceAlpha" type="matrix" values="0 0 0 0 0 0 0 0 0 0 0 0 0 0 0 0 0 0 127 0" result="hardAlpha"/>
<feOffset dy="6"/>
<feGaussianBlur stdDeviation="10"/>
<feComposite in2="hardAlpha" operator="out"/>
<feColorMatrix type="matrix" values="0 0 0 0 1 0 0 0 0 1 0 0 0 0 1 0 0 0 0.15 0"/>
<feBlend mode="normal" in2="BackgroundImageFix" result="effect1_dropShadow_43_36"/>
<feBlend mode="normal" in="SourceGraphic" in2="effect1_dropShadow_43_36" result="shape"/>
</filter>
</defs>
</svg>
