<svg width="41" height="41" viewBox="0 0 41 41" fill="none" xmlns="http://www.w3.org/2000/svg">
<circle cx="20.1988" cy="20.2529" r="19.6729" stroke="black"/>
<path d="M27.3087 13.5808C25.9787 12.9608 24.5387 12.5108 23.0387 12.2508C23.0255 12.2504 23.0125 12.2529 23.0004 12.2581C22.9883 12.2633 22.9775 12.271 22.9687 12.2808C22.7887 12.6108 22.5787 13.0408 22.4387 13.3708C20.8477 13.1308 19.2297 13.1308 17.6387 13.3708C17.4987 13.0308 17.2887 12.6108 17.0987 12.2808C17.0887 12.2608 17.0587 12.2508 17.0287 12.2508C15.5287 12.5108 14.0987 12.9608 12.7587 13.5808C12.7487 13.5808 12.7387 13.5908 12.7287 13.6008C10.0087 17.6708 9.25869 21.6308 9.62869 25.5508C9.62869 25.5708 9.63869 25.5908 9.65869 25.6008C11.4587 26.9208 13.1887 27.7208 14.8987 28.2508C14.9287 28.2608 14.9587 28.2508 14.9687 28.2308C15.3687 27.6808 15.7287 27.1008 16.0387 26.4908C16.0587 26.4508 16.0387 26.4108 15.9987 26.4008C15.4287 26.1808 14.8887 25.9208 14.3587 25.6208C14.3187 25.6008 14.3187 25.5408 14.3487 25.5108C14.4587 25.4308 14.5687 25.3408 14.6787 25.2608C14.6987 25.2408 14.7287 25.2408 14.7487 25.2508C18.1887 26.8208 21.8987 26.8208 25.2987 25.2508C25.3187 25.2408 25.3487 25.2408 25.3687 25.2608C25.4787 25.3508 25.5887 25.4308 25.6987 25.5208C25.7387 25.5508 25.7387 25.6108 25.6887 25.6308C25.1687 25.9408 24.6187 26.1908 24.0487 26.4108C24.0087 26.4208 23.9987 26.4708 24.0087 26.5008C24.3287 27.1108 24.6887 27.6908 25.0787 28.2408C25.1087 28.2508 25.1387 28.2608 25.1687 28.2508C26.8887 27.7208 28.6187 26.9208 30.4187 25.6008C30.4387 25.5908 30.4487 25.5708 30.4487 25.5508C30.8887 21.0208 29.7187 17.0908 27.3487 13.6008C27.3387 13.5908 27.3287 13.5808 27.3087 13.5808ZM16.5587 23.1608C15.5287 23.1608 14.6687 22.2108 14.6687 21.0408C14.6687 19.8708 15.5087 18.9208 16.5587 18.9208C17.6187 18.9208 18.4587 19.8808 18.4487 21.0408C18.4487 22.2108 17.6087 23.1608 16.5587 23.1608ZM23.5287 23.1608C22.4987 23.1608 21.6387 22.2108 21.6387 21.0408C21.6387 19.8708 22.4787 18.9208 23.5287 18.9208C24.5887 18.9208 25.4287 19.8808 25.4187 21.0408C25.4187 22.2108 24.5887 23.1608 23.5287 23.1608Z" fill="black"/>
</svg>
