<svg width="1445" height="709" viewBox="0 0 1445 709" fill="none" xmlns="http://www.w3.org/2000/svg">
<path d="M128.42 489.284V312.904C128.42 307.89 132.484 303.826 137.498 303.826H725.628M1322.84 489.284V312.904C1322.84 307.89 1318.77 303.826 1313.76 303.826H725.628M725.628 303.826V537.396" stroke="#4A4A4A" stroke-width="4.53881" stroke-dasharray="11.8 11.8"/>
<path d="M387.044 270.82V88.3354C387.044 83.322 391.108 79.2578 396.122 79.2578H725.627M1064.21 270.82V88.3354C1064.21 83.322 1060.15 79.2578 1055.13 79.2578H725.627M725.627 79.2578V270.82" stroke="#4A4A4A" stroke-width="4.53881" stroke-dasharray="11.8 11.8"/>
<g filter="url(#filter0_d_186_115)">
<rect x="655.504" y="9.13379" width="140.248" height="140.248" rx="27.2329" fill="#870EFF"/>
</g>
<path d="M528.562 304.466V524.361" stroke="#4A4A4A" stroke-width="4.53881" stroke-dasharray="11.8 11.8"/>
<path d="M922.595 304.466V524.361" stroke="#4A4A4A" stroke-width="4.53881" stroke-dasharray="11.8 11.8"/>
<path d="M390.923 367.977V422.8H332.184V531.14" stroke="#4A4A4A" stroke-width="4.53881" stroke-dasharray="11.8 11.8"/>
<path d="M1060.87 367.977V422.8H1119.61V531.14" stroke="#4A4A4A" stroke-width="4.53881" stroke-dasharray="11.8 11.8"/>
<path d="M694.835 86.8897H699.546V91.5469H682.774V86.8897H688.778V74.8294C687.109 76.2831 685.036 76.4446 683.259 76.4446V71.3567C685.036 71.3567 686.893 70.7106 688.778 68.9339H694.835V86.8897ZM711.891 92.1391C705.026 92.1391 700.88 88.128 700.88 80.2404C700.88 72.3259 705.026 68.3417 711.891 68.3417C718.755 68.3417 722.874 72.3259 722.874 80.2404C722.874 88.128 718.755 92.1391 711.891 92.1391ZM711.891 86.9974C714.987 86.9974 716.898 84.9245 716.898 80.2404C716.898 75.5294 714.987 73.4565 711.891 73.4565C708.795 73.4565 706.857 75.5294 706.857 80.2404C706.857 84.9245 708.795 86.9974 711.891 86.9974ZM735.236 92.1391C728.371 92.1391 724.225 88.128 724.225 80.2404C724.225 72.3259 728.371 68.3417 735.236 68.3417C742.1 68.3417 746.219 72.3259 746.219 80.2404C746.219 88.128 742.1 92.1391 735.236 92.1391ZM735.236 86.9974C738.331 86.9974 740.243 84.9245 740.243 80.2404C740.243 75.5294 738.331 73.4565 735.236 73.4565C732.14 73.4565 730.201 75.5294 730.201 80.2404C730.201 84.9245 732.14 86.9974 735.236 86.9974ZM755.861 92.3545L753.169 90.5239L767.841 68.0186L770.533 69.8492L755.861 92.3545ZM753.977 80.1327C749.966 80.1327 748.108 77.5215 748.108 74.3718C748.108 71.2221 749.966 68.6109 753.977 68.6109C757.961 68.6109 759.819 71.2221 759.819 74.3718C759.819 77.5215 757.961 80.1327 753.977 80.1327ZM753.977 76.31C755.296 76.31 755.888 75.3948 755.888 74.3718C755.888 73.3219 755.296 72.4335 753.977 72.4335C752.658 72.4335 752.066 73.3219 752.066 74.3718C752.066 75.3948 752.658 76.31 753.977 76.31ZM769.698 91.8699C765.714 91.8699 763.857 89.2587 763.857 86.0821C763.857 82.9324 765.714 80.3212 769.698 80.3212C773.71 80.3212 775.567 82.9324 775.567 86.0821C775.567 89.2587 773.71 91.8699 769.698 91.8699ZM769.698 88.0203C771.018 88.0203 771.61 87.105 771.61 86.0821C771.61 85.0322 771.018 84.1707 769.698 84.1707C768.379 84.1707 767.787 85.0322 767.787 86.0821C767.787 87.105 768.379 88.0203 769.698 88.0203Z" fill="white"/>
<g filter="url(#filter1_d_186_115)">
<rect x="316.92" y="233.701" width="140.248" height="140.248" rx="27.2329" fill="#870EFF"/>
</g>
<g filter="url(#filter2_d_186_115)">
<rect x="655.504" y="233.701" width="140.248" height="140.248" rx="27.2329" fill="#870EFF"/>
</g>
<g filter="url(#filter3_d_186_115)">
<rect x="994.087" y="233.701" width="140.248" height="140.248" rx="27.2329" fill="#870EFF"/>
</g>
<g filter="url(#filter4_d_186_115)">
<rect x="58.2954" y="461.016" width="140.248" height="140.248" rx="27.2329" fill="#870EFF"/>
</g>
<g filter="url(#filter5_d_186_115)">
<rect x="261.422" y="461.016" width="140.248" height="140.248" rx="27.2329" fill="#870EFF"/>
</g>
<g filter="url(#filter6_d_186_115)">
<rect x="458.438" y="461.016" width="140.248" height="140.248" rx="27.2329" fill="#870EFF"/>
</g>
<g filter="url(#filter7_d_186_115)">
<rect x="655.455" y="461.016" width="140.248" height="140.248" rx="27.2329" fill="#870EFF"/>
</g>
<g filter="url(#filter8_d_186_115)">
<rect x="852.471" y="461.016" width="140.248" height="140.248" rx="27.2329" fill="#870EFF"/>
</g>
<g filter="url(#filter9_d_186_115)">
<rect x="1049.49" y="461.016" width="140.248" height="140.248" rx="27.2329" fill="#870EFF"/>
</g>
<g filter="url(#filter10_d_186_115)">
<rect x="1246.5" y="461.016" width="140.248" height="140.248" rx="27.2329" fill="#870EFF"/>
</g>
<path d="M364.006 312.767H368.717V317.424H351.946V312.767H357.949V300.706C356.28 302.16 354.207 302.322 352.43 302.322V297.234C354.207 297.234 356.065 296.588 357.949 294.811H364.006V312.767ZM381.062 318.016C374.197 318.016 370.052 314.005 370.052 306.117C370.052 298.203 374.197 294.219 381.062 294.219C387.927 294.219 392.046 298.203 392.046 306.117C392.046 314.005 387.927 318.016 381.062 318.016ZM381.062 312.874C384.158 312.874 386.069 310.801 386.069 306.117C386.069 301.406 384.158 299.333 381.062 299.333C377.966 299.333 376.028 301.406 376.028 306.117C376.028 310.801 377.966 312.874 381.062 312.874ZM401.688 318.231L398.996 316.401L413.667 293.896L416.359 295.726L401.688 318.231ZM399.804 306.01C395.792 306.01 393.935 303.398 393.935 300.249C393.935 297.099 395.792 294.488 399.804 294.488C403.788 294.488 405.645 297.099 405.645 300.249C405.645 303.398 403.788 306.01 399.804 306.01ZM399.804 302.187C401.123 302.187 401.715 301.272 401.715 300.249C401.715 299.199 401.123 298.31 399.804 298.31C398.484 298.31 397.892 299.199 397.892 300.249C397.892 301.272 398.484 302.187 399.804 302.187ZM415.525 317.747C411.541 317.747 409.683 315.136 409.683 311.959C409.683 308.809 411.541 306.198 415.525 306.198C419.536 306.198 421.394 308.809 421.394 311.959C421.394 315.136 419.536 317.747 415.525 317.747ZM415.525 313.897C416.844 313.897 417.436 312.982 417.436 311.959C417.436 310.909 416.844 310.048 415.525 310.048C414.206 310.048 413.614 310.909 413.614 311.959C413.614 312.982 414.206 313.897 415.525 313.897Z" fill="white"/>
<path d="M113.047 542.952C106.667 542.952 103.41 540.34 103.491 535.36H108.928C109.144 537.352 110.894 538.16 112.993 538.16C115.874 538.16 117.489 536.598 117.489 534.526C117.489 532.372 115.955 530.999 113.289 530.999C111.163 530.999 109.898 531.86 109.198 532.722H103.76L106.075 519.746H121.258V524.377H110.571L109.817 528.765C110.544 528.172 112.267 527.392 114.985 527.392C119.454 527.392 123.196 529.895 123.196 534.822C123.196 539.829 119.562 542.952 113.047 542.952ZM132.965 543.167L130.273 541.336L144.944 518.831L147.636 520.662L132.965 543.167ZM131.08 530.945C127.069 530.945 125.212 528.334 125.212 525.184C125.212 522.035 127.069 519.423 131.08 519.423C135.065 519.423 136.922 522.035 136.922 525.184C136.922 528.334 135.065 530.945 131.08 530.945ZM131.08 527.123C132.399 527.123 132.992 526.207 132.992 525.184C132.992 524.134 132.399 523.246 131.08 523.246C129.761 523.246 129.169 524.134 129.169 525.184C129.169 526.207 129.761 527.123 131.08 527.123ZM146.802 542.682C142.818 542.682 140.96 540.071 140.96 536.895C140.96 533.745 142.818 531.134 146.802 531.134C150.813 531.134 152.67 533.745 152.67 536.895C152.67 540.071 150.813 542.682 146.802 542.682ZM146.802 538.833C148.121 538.833 148.713 537.918 148.713 536.895C148.713 535.845 148.121 534.983 146.802 534.983C145.483 534.983 144.89 535.845 144.89 536.895C144.89 537.918 145.483 538.833 146.802 538.833Z" fill="white"/>
<path d="M316.174 542.952C309.794 542.952 306.536 540.34 306.617 535.36H312.055C312.27 537.352 314.02 538.16 316.12 538.16C319 538.16 320.616 536.598 320.616 534.526C320.616 532.372 319.081 530.999 316.416 530.999C314.289 530.999 313.024 531.86 312.324 532.722H306.886L309.201 519.746H324.384V524.377H313.697L312.943 528.765C313.67 528.172 315.393 527.392 318.112 527.392C322.581 527.392 326.323 529.895 326.323 534.822C326.323 539.829 322.688 542.952 316.174 542.952ZM336.091 543.167L333.399 541.336L348.071 518.831L350.763 520.662L336.091 543.167ZM334.207 530.945C330.196 530.945 328.338 528.334 328.338 525.184C328.338 522.035 330.196 519.423 334.207 519.423C338.191 519.423 340.049 522.035 340.049 525.184C340.049 528.334 338.191 530.945 334.207 530.945ZM334.207 527.123C335.526 527.123 336.118 526.207 336.118 525.184C336.118 524.134 335.526 523.246 334.207 523.246C332.888 523.246 332.296 524.134 332.296 525.184C332.296 526.207 332.888 527.123 334.207 527.123ZM349.928 542.682C345.944 542.682 344.087 540.071 344.087 536.895C344.087 533.745 345.944 531.134 349.928 531.134C353.939 531.134 355.797 533.745 355.797 536.895C355.797 540.071 353.939 542.682 349.928 542.682ZM349.928 538.833C351.247 538.833 351.84 537.918 351.84 536.895C351.84 535.845 351.247 534.983 349.928 534.983C348.609 534.983 348.017 535.845 348.017 536.895C348.017 537.918 348.609 538.833 349.928 538.833Z" fill="white"/>
<path d="M513.19 542.952C506.81 542.952 503.553 540.34 503.634 535.36H509.071C509.287 537.352 511.037 538.16 513.136 538.16C516.017 538.16 517.632 536.598 517.632 534.526C517.632 532.372 516.098 530.999 513.433 530.999C511.306 530.999 510.041 531.86 509.341 532.722H503.903L506.218 519.746H521.401V524.377H510.714L509.96 528.765C510.687 528.172 512.41 527.392 515.129 527.392C519.597 527.392 523.339 529.895 523.339 534.822C523.339 539.829 519.705 542.952 513.19 542.952ZM533.108 543.167L530.416 541.336L545.087 518.831L547.779 520.662L533.108 543.167ZM531.223 530.945C527.212 530.945 525.355 528.334 525.355 525.184C525.355 522.035 527.212 519.423 531.223 519.423C535.208 519.423 537.065 522.035 537.065 525.184C537.065 528.334 535.208 530.945 531.223 530.945ZM531.223 527.123C532.543 527.123 533.135 526.207 533.135 525.184C533.135 524.134 532.543 523.246 531.223 523.246C529.904 523.246 529.312 524.134 529.312 525.184C529.312 526.207 529.904 527.123 531.223 527.123ZM546.945 542.682C542.961 542.682 541.103 540.071 541.103 536.895C541.103 533.745 542.961 531.134 546.945 531.134C550.956 531.134 552.813 533.745 552.813 536.895C552.813 540.071 550.956 542.682 546.945 542.682ZM546.945 538.833C548.264 538.833 548.856 537.918 548.856 536.895C548.856 535.845 548.264 534.983 546.945 534.983C545.626 534.983 545.034 535.845 545.034 536.895C545.034 537.918 545.626 538.833 546.945 538.833Z" fill="white"/>
<path d="M710.206 542.952C703.826 542.952 700.569 540.34 700.65 535.36H706.088C706.303 537.352 708.053 538.16 710.153 538.16C713.033 538.16 714.648 536.598 714.648 534.526C714.648 532.372 713.114 530.999 710.449 530.999C708.322 530.999 707.057 531.86 706.357 532.722H700.919L703.234 519.746H718.417V524.377H707.73L706.976 528.765C707.703 528.172 709.426 527.392 712.145 527.392C716.613 527.392 720.355 529.895 720.355 534.822C720.355 539.829 716.721 542.952 710.206 542.952ZM730.124 543.167L727.432 541.336L742.103 518.831L744.795 520.662L730.124 543.167ZM728.24 530.945C724.228 530.945 722.371 528.334 722.371 525.184C722.371 522.035 724.228 519.423 728.24 519.423C732.224 519.423 734.081 522.035 734.081 525.184C734.081 528.334 732.224 530.945 728.24 530.945ZM728.24 527.123C729.559 527.123 730.151 526.207 730.151 525.184C730.151 524.134 729.559 523.246 728.24 523.246C726.92 523.246 726.328 524.134 726.328 525.184C726.328 526.207 726.92 527.123 728.24 527.123ZM743.961 542.682C739.977 542.682 738.119 540.071 738.119 536.895C738.119 533.745 739.977 531.134 743.961 531.134C747.972 531.134 749.83 533.745 749.83 536.895C749.83 540.071 747.972 542.682 743.961 542.682ZM743.961 538.833C745.28 538.833 745.872 537.918 745.872 536.895C745.872 535.845 745.28 534.983 743.961 534.983C742.642 534.983 742.05 535.845 742.05 536.895C742.05 537.918 742.642 538.833 743.961 538.833Z" fill="white"/>
<path d="M907.223 542.952C900.842 542.952 897.585 540.34 897.666 535.36H903.104C903.319 537.352 905.069 538.16 907.169 538.16C910.049 538.16 911.664 536.598 911.664 534.526C911.664 532.372 910.13 530.999 907.465 530.999C905.338 530.999 904.073 531.86 903.373 532.722H897.935L900.25 519.746H915.433V524.377H904.746L903.992 528.765C904.719 528.172 906.442 527.392 909.161 527.392C913.63 527.392 917.371 529.895 917.371 534.822C917.371 539.829 913.737 542.952 907.223 542.952ZM927.14 543.167L924.448 541.336L939.12 518.831L941.812 520.662L927.14 543.167ZM925.256 530.945C921.245 530.945 919.387 528.334 919.387 525.184C919.387 522.035 921.245 519.423 925.256 519.423C929.24 519.423 931.097 522.035 931.097 525.184C931.097 528.334 929.24 530.945 925.256 530.945ZM925.256 527.123C926.575 527.123 927.167 526.207 927.167 525.184C927.167 524.134 926.575 523.246 925.256 523.246C923.937 523.246 923.344 524.134 923.344 525.184C923.344 526.207 923.937 527.123 925.256 527.123ZM940.977 542.682C936.993 542.682 935.135 540.071 935.135 536.895C935.135 533.745 936.993 531.134 940.977 531.134C944.988 531.134 946.846 533.745 946.846 536.895C946.846 540.071 944.988 542.682 940.977 542.682ZM940.977 538.833C942.296 538.833 942.888 537.918 942.888 536.895C942.888 535.845 942.296 534.983 940.977 534.983C939.658 534.983 939.066 535.845 939.066 536.895C939.066 537.918 939.658 538.833 940.977 538.833Z" fill="white"/>
<path d="M1104.24 542.952C1097.86 542.952 1094.6 540.34 1094.68 535.36H1100.12C1100.33 537.352 1102.08 538.16 1104.18 538.16C1107.06 538.16 1108.68 536.598 1108.68 534.526C1108.68 532.372 1107.15 530.999 1104.48 530.999C1102.35 530.999 1101.09 531.86 1100.39 532.722H1094.95L1097.27 519.746H1112.45V524.377H1101.76L1101.01 528.765C1101.73 528.172 1103.46 527.392 1106.18 527.392C1110.65 527.392 1114.39 529.895 1114.39 534.822C1114.39 539.829 1110.75 542.952 1104.24 542.952ZM1124.16 543.167L1121.46 541.336L1136.14 518.831L1138.83 520.662L1124.16 543.167ZM1122.27 530.945C1118.26 530.945 1116.4 528.334 1116.4 525.184C1116.4 522.035 1118.26 519.423 1122.27 519.423C1126.26 519.423 1128.11 522.035 1128.11 525.184C1128.11 528.334 1126.26 530.945 1122.27 530.945ZM1122.27 527.123C1123.59 527.123 1124.18 526.207 1124.18 525.184C1124.18 524.134 1123.59 523.246 1122.27 523.246C1120.95 523.246 1120.36 524.134 1120.36 525.184C1120.36 526.207 1120.95 527.123 1122.27 527.123ZM1137.99 542.682C1134.01 542.682 1132.15 540.071 1132.15 536.895C1132.15 533.745 1134.01 531.134 1137.99 531.134C1142 531.134 1143.86 533.745 1143.86 536.895C1143.86 540.071 1142 542.682 1137.99 542.682ZM1137.99 538.833C1139.31 538.833 1139.9 537.918 1139.9 536.895C1139.9 535.845 1139.31 534.983 1137.99 534.983C1136.67 534.983 1136.08 535.845 1136.08 536.895C1136.08 537.918 1136.67 538.833 1137.99 538.833Z" fill="white"/>
<path d="M1301.25 542.952C1294.87 542.952 1291.62 540.34 1291.7 535.36H1297.13C1297.35 537.352 1299.1 538.16 1301.2 538.16C1304.08 538.16 1305.7 536.598 1305.7 534.526C1305.7 532.372 1304.16 530.999 1301.5 530.999C1299.37 530.999 1298.1 531.86 1297.4 532.722H1291.97L1294.28 519.746H1309.46V524.377H1298.78L1298.02 528.765C1298.75 528.172 1300.47 527.392 1303.19 527.392C1307.66 527.392 1311.4 529.895 1311.4 534.822C1311.4 539.829 1307.77 542.952 1301.25 542.952ZM1321.17 543.167L1318.48 541.336L1333.15 518.831L1335.84 520.662L1321.17 543.167ZM1319.29 530.945C1315.28 530.945 1313.42 528.334 1313.42 525.184C1313.42 522.035 1315.28 519.423 1319.29 519.423C1323.27 519.423 1325.13 522.035 1325.13 525.184C1325.13 528.334 1323.27 530.945 1319.29 530.945ZM1319.29 527.123C1320.61 527.123 1321.2 526.207 1321.2 525.184C1321.2 524.134 1320.61 523.246 1319.29 523.246C1317.97 523.246 1317.38 524.134 1317.38 525.184C1317.38 526.207 1317.97 527.123 1319.29 527.123ZM1335.01 542.682C1331.02 542.682 1329.17 540.071 1329.17 536.895C1329.17 533.745 1331.02 531.134 1335.01 531.134C1339.02 531.134 1340.88 533.745 1340.88 536.895C1340.88 540.071 1339.02 542.682 1335.01 542.682ZM1335.01 538.833C1336.33 538.833 1336.92 537.918 1336.92 536.895C1336.92 535.845 1336.33 534.983 1335.01 534.983C1333.69 534.983 1333.1 535.845 1333.1 536.895C1333.1 537.918 1333.69 538.833 1335.01 538.833Z" fill="white"/>
<path d="M706.182 312.767H710.893V317.424H694.122V312.767H700.125V300.706C698.456 302.16 696.383 302.322 694.606 302.322V297.234C696.383 297.234 698.24 296.588 700.125 294.811H706.182V312.767ZM723.238 318.016C716.373 318.016 712.227 314.005 712.227 306.117C712.227 298.203 716.373 294.219 723.238 294.219C730.103 294.219 734.221 298.203 734.221 306.117C734.221 314.005 730.103 318.016 723.238 318.016ZM723.238 312.874C726.334 312.874 728.245 310.801 728.245 306.117C728.245 301.406 726.334 299.333 723.238 299.333C720.142 299.333 718.204 301.406 718.204 306.117C718.204 310.801 720.142 312.874 723.238 312.874ZM743.864 318.231L741.172 316.401L755.843 293.896L758.535 295.726L743.864 318.231ZM741.979 306.01C737.968 306.01 736.111 303.398 736.111 300.249C736.111 297.099 737.968 294.488 741.979 294.488C745.964 294.488 747.821 297.099 747.821 300.249C747.821 303.398 745.964 306.01 741.979 306.01ZM741.979 302.187C743.298 302.187 743.891 301.272 743.891 300.249C743.891 299.199 743.298 298.31 741.979 298.31C740.66 298.31 740.068 299.199 740.068 300.249C740.068 301.272 740.66 302.187 741.979 302.187ZM757.701 317.747C753.717 317.747 751.859 315.136 751.859 311.959C751.859 308.809 753.717 306.198 757.701 306.198C761.712 306.198 763.569 308.809 763.569 311.959C763.569 315.136 761.712 317.747 757.701 317.747ZM757.701 313.897C759.02 313.897 759.612 312.982 759.612 311.959C759.612 310.909 759.02 310.048 757.701 310.048C756.382 310.048 755.789 310.909 755.789 311.959C755.789 312.982 756.382 313.897 757.701 313.897Z" fill="white"/>
<path d="M1048.36 312.767H1053.07V317.424H1036.3V312.767H1042.3V300.706C1040.63 302.16 1038.56 302.322 1036.78 302.322V297.234C1038.56 297.234 1040.42 296.588 1042.3 294.811H1048.36V312.767ZM1065.41 318.016C1058.55 318.016 1054.4 314.005 1054.4 306.117C1054.4 298.203 1058.55 294.219 1065.41 294.219C1072.28 294.219 1076.4 298.203 1076.4 306.117C1076.4 314.005 1072.28 318.016 1065.41 318.016ZM1065.41 312.874C1068.51 312.874 1070.42 310.801 1070.42 306.117C1070.42 301.406 1068.51 299.333 1065.41 299.333C1062.32 299.333 1060.38 301.406 1060.38 306.117C1060.38 310.801 1062.32 312.874 1065.41 312.874ZM1086.04 318.231L1083.35 316.401L1098.02 293.896L1100.71 295.726L1086.04 318.231ZM1084.16 306.01C1080.14 306.01 1078.29 303.398 1078.29 300.249C1078.29 297.099 1080.14 294.488 1084.16 294.488C1088.14 294.488 1090 297.099 1090 300.249C1090 303.398 1088.14 306.01 1084.16 306.01ZM1084.16 302.187C1085.47 302.187 1086.07 301.272 1086.07 300.249C1086.07 299.199 1085.47 298.31 1084.16 298.31C1082.84 298.31 1082.24 299.199 1082.24 300.249C1082.24 301.272 1082.84 302.187 1084.16 302.187ZM1099.88 317.747C1095.89 317.747 1094.03 315.136 1094.03 311.959C1094.03 308.809 1095.89 306.198 1099.88 306.198C1103.89 306.198 1105.75 308.809 1105.75 311.959C1105.75 315.136 1103.89 317.747 1099.88 317.747ZM1099.88 313.897C1101.2 313.897 1101.79 312.982 1101.79 311.959C1101.79 310.909 1101.2 310.048 1099.88 310.048C1098.56 310.048 1097.97 310.909 1097.97 311.959C1097.97 312.982 1098.56 313.897 1099.88 313.897Z" fill="white"/>
<rect x="458.145" y="292.039" width="64.6455" height="45.7607" fill="white"/>
<rect x="929.441" y="292.039" width="64.6455" height="45.7607" fill="white"/>
<defs>
<filter id="filter0_d_186_115" x="597.407" y="0.0561676" width="256.442" height="256.442" filterUnits="userSpaceOnUse" color-interpolation-filters="sRGB">
<feFlood flood-opacity="0" result="BackgroundImageFix"/>
<feColorMatrix in="SourceAlpha" type="matrix" values="0 0 0 0 0 0 0 0 0 0 0 0 0 0 0 0 0 0 127 0" result="hardAlpha"/>
<feOffset dy="49.0192"/>
<feGaussianBlur stdDeviation="29.0484"/>
<feComposite in2="hardAlpha" operator="out"/>
<feColorMatrix type="matrix" values="0 0 0 0 0.527451 0 0 0 0 0.054902 0 0 0 0 1 0 0 0 0.1 0"/>
<feBlend mode="normal" in2="BackgroundImageFix" result="effect1_dropShadow_186_115"/>
<feBlend mode="normal" in="SourceGraphic" in2="effect1_dropShadow_186_115" result="shape"/>
</filter>
<filter id="filter1_d_186_115" x="258.824" y="224.624" width="256.442" height="256.442" filterUnits="userSpaceOnUse" color-interpolation-filters="sRGB">
<feFlood flood-opacity="0" result="BackgroundImageFix"/>
<feColorMatrix in="SourceAlpha" type="matrix" values="0 0 0 0 0 0 0 0 0 0 0 0 0 0 0 0 0 0 127 0" result="hardAlpha"/>
<feOffset dy="49.0192"/>
<feGaussianBlur stdDeviation="29.0484"/>
<feComposite in2="hardAlpha" operator="out"/>
<feColorMatrix type="matrix" values="0 0 0 0 0.527451 0 0 0 0 0.054902 0 0 0 0 1 0 0 0 0.1 0"/>
<feBlend mode="normal" in2="BackgroundImageFix" result="effect1_dropShadow_186_115"/>
<feBlend mode="normal" in="SourceGraphic" in2="effect1_dropShadow_186_115" result="shape"/>
</filter>
<filter id="filter2_d_186_115" x="597.407" y="224.624" width="256.442" height="256.442" filterUnits="userSpaceOnUse" color-interpolation-filters="sRGB">
<feFlood flood-opacity="0" result="BackgroundImageFix"/>
<feColorMatrix in="SourceAlpha" type="matrix" values="0 0 0 0 0 0 0 0 0 0 0 0 0 0 0 0 0 0 127 0" result="hardAlpha"/>
<feOffset dy="49.0192"/>
<feGaussianBlur stdDeviation="29.0484"/>
<feComposite in2="hardAlpha" operator="out"/>
<feColorMatrix type="matrix" values="0 0 0 0 0.527451 0 0 0 0 0.054902 0 0 0 0 1 0 0 0 0.1 0"/>
<feBlend mode="normal" in2="BackgroundImageFix" result="effect1_dropShadow_186_115"/>
<feBlend mode="normal" in="SourceGraphic" in2="effect1_dropShadow_186_115" result="shape"/>
</filter>
<filter id="filter3_d_186_115" x="935.99" y="224.624" width="256.442" height="256.442" filterUnits="userSpaceOnUse" color-interpolation-filters="sRGB">
<feFlood flood-opacity="0" result="BackgroundImageFix"/>
<feColorMatrix in="SourceAlpha" type="matrix" values="0 0 0 0 0 0 0 0 0 0 0 0 0 0 0 0 0 0 127 0" result="hardAlpha"/>
<feOffset dy="49.0192"/>
<feGaussianBlur stdDeviation="29.0484"/>
<feComposite in2="hardAlpha" operator="out"/>
<feColorMatrix type="matrix" values="0 0 0 0 0.527451 0 0 0 0 0.054902 0 0 0 0 1 0 0 0 0.1 0"/>
<feBlend mode="normal" in2="BackgroundImageFix" result="effect1_dropShadow_186_115"/>
<feBlend mode="normal" in="SourceGraphic" in2="effect1_dropShadow_186_115" result="shape"/>
</filter>
<filter id="filter4_d_186_115" x="0.198635" y="451.938" width="256.442" height="256.442" filterUnits="userSpaceOnUse" color-interpolation-filters="sRGB">
<feFlood flood-opacity="0" result="BackgroundImageFix"/>
<feColorMatrix in="SourceAlpha" type="matrix" values="0 0 0 0 0 0 0 0 0 0 0 0 0 0 0 0 0 0 127 0" result="hardAlpha"/>
<feOffset dy="49.0192"/>
<feGaussianBlur stdDeviation="29.0484"/>
<feComposite in2="hardAlpha" operator="out"/>
<feColorMatrix type="matrix" values="0 0 0 0 0.527451 0 0 0 0 0.054902 0 0 0 0 1 0 0 0 0.1 0"/>
<feBlend mode="normal" in2="BackgroundImageFix" result="effect1_dropShadow_186_115"/>
<feBlend mode="normal" in="SourceGraphic" in2="effect1_dropShadow_186_115" result="shape"/>
</filter>
<filter id="filter5_d_186_115" x="203.325" y="451.938" width="256.442" height="256.442" filterUnits="userSpaceOnUse" color-interpolation-filters="sRGB">
<feFlood flood-opacity="0" result="BackgroundImageFix"/>
<feColorMatrix in="SourceAlpha" type="matrix" values="0 0 0 0 0 0 0 0 0 0 0 0 0 0 0 0 0 0 127 0" result="hardAlpha"/>
<feOffset dy="49.0192"/>
<feGaussianBlur stdDeviation="29.0484"/>
<feComposite in2="hardAlpha" operator="out"/>
<feColorMatrix type="matrix" values="0 0 0 0 0.527451 0 0 0 0 0.054902 0 0 0 0 1 0 0 0 0.1 0"/>
<feBlend mode="normal" in2="BackgroundImageFix" result="effect1_dropShadow_186_115"/>
<feBlend mode="normal" in="SourceGraphic" in2="effect1_dropShadow_186_115" result="shape"/>
</filter>
<filter id="filter6_d_186_115" x="400.342" y="451.938" width="256.442" height="256.442" filterUnits="userSpaceOnUse" color-interpolation-filters="sRGB">
<feFlood flood-opacity="0" result="BackgroundImageFix"/>
<feColorMatrix in="SourceAlpha" type="matrix" values="0 0 0 0 0 0 0 0 0 0 0 0 0 0 0 0 0 0 127 0" result="hardAlpha"/>
<feOffset dy="49.0192"/>
<feGaussianBlur stdDeviation="29.0484"/>
<feComposite in2="hardAlpha" operator="out"/>
<feColorMatrix type="matrix" values="0 0 0 0 0.527451 0 0 0 0 0.054902 0 0 0 0 1 0 0 0 0.1 0"/>
<feBlend mode="normal" in2="BackgroundImageFix" result="effect1_dropShadow_186_115"/>
<feBlend mode="normal" in="SourceGraphic" in2="effect1_dropShadow_186_115" result="shape"/>
</filter>
<filter id="filter7_d_186_115" x="597.358" y="451.938" width="256.442" height="256.442" filterUnits="userSpaceOnUse" color-interpolation-filters="sRGB">
<feFlood flood-opacity="0" result="BackgroundImageFix"/>
<feColorMatrix in="SourceAlpha" type="matrix" values="0 0 0 0 0 0 0 0 0 0 0 0 0 0 0 0 0 0 127 0" result="hardAlpha"/>
<feOffset dy="49.0192"/>
<feGaussianBlur stdDeviation="29.0484"/>
<feComposite in2="hardAlpha" operator="out"/>
<feColorMatrix type="matrix" values="0 0 0 0 0.527451 0 0 0 0 0.054902 0 0 0 0 1 0 0 0 0.1 0"/>
<feBlend mode="normal" in2="BackgroundImageFix" result="effect1_dropShadow_186_115"/>
<feBlend mode="normal" in="SourceGraphic" in2="effect1_dropShadow_186_115" result="shape"/>
</filter>
<filter id="filter8_d_186_115" x="794.374" y="451.938" width="256.442" height="256.442" filterUnits="userSpaceOnUse" color-interpolation-filters="sRGB">
<feFlood flood-opacity="0" result="BackgroundImageFix"/>
<feColorMatrix in="SourceAlpha" type="matrix" values="0 0 0 0 0 0 0 0 0 0 0 0 0 0 0 0 0 0 127 0" result="hardAlpha"/>
<feOffset dy="49.0192"/>
<feGaussianBlur stdDeviation="29.0484"/>
<feComposite in2="hardAlpha" operator="out"/>
<feColorMatrix type="matrix" values="0 0 0 0 0.527451 0 0 0 0 0.054902 0 0 0 0 1 0 0 0 0.1 0"/>
<feBlend mode="normal" in2="BackgroundImageFix" result="effect1_dropShadow_186_115"/>
<feBlend mode="normal" in="SourceGraphic" in2="effect1_dropShadow_186_115" result="shape"/>
</filter>
<filter id="filter9_d_186_115" x="991.391" y="451.938" width="256.442" height="256.442" filterUnits="userSpaceOnUse" color-interpolation-filters="sRGB">
<feFlood flood-opacity="0" result="BackgroundImageFix"/>
<feColorMatrix in="SourceAlpha" type="matrix" values="0 0 0 0 0 0 0 0 0 0 0 0 0 0 0 0 0 0 127 0" result="hardAlpha"/>
<feOffset dy="49.0192"/>
<feGaussianBlur stdDeviation="29.0484"/>
<feComposite in2="hardAlpha" operator="out"/>
<feColorMatrix type="matrix" values="0 0 0 0 0.527451 0 0 0 0 0.054902 0 0 0 0 1 0 0 0 0.1 0"/>
<feBlend mode="normal" in2="BackgroundImageFix" result="effect1_dropShadow_186_115"/>
<feBlend mode="normal" in="SourceGraphic" in2="effect1_dropShadow_186_115" result="shape"/>
</filter>
<filter id="filter10_d_186_115" x="1188.41" y="451.938" width="256.442" height="256.442" filterUnits="userSpaceOnUse" color-interpolation-filters="sRGB">
<feFlood flood-opacity="0" result="BackgroundImageFix"/>
<feColorMatrix in="SourceAlpha" type="matrix" values="0 0 0 0 0 0 0 0 0 0 0 0 0 0 0 0 0 0 127 0" result="hardAlpha"/>
<feOffset dy="49.0192"/>
<feGaussianBlur stdDeviation="29.0484"/>
<feComposite in2="hardAlpha" operator="out"/>
<feColorMatrix type="matrix" values="0 0 0 0 0.527451 0 0 0 0 0.054902 0 0 0 0 1 0 0 0 0.1 0"/>
<feBlend mode="normal" in2="BackgroundImageFix" result="effect1_dropShadow_186_115"/>
<feBlend mode="normal" in="SourceGraphic" in2="effect1_dropShadow_186_115" result="shape"/>
</filter>
</defs>
</svg>
