<svg width="88" height="88" viewBox="0 0 88 88" fill="none" xmlns="http://www.w3.org/2000/svg">
<rect x="0.158203" y="0.0371094" width="87.459" height="87.459" rx="17" fill="#870EFF" fill-opacity="0.1"/>
<path d="M41.7783 37.7967C40.5984 37.8865 39.6689 38.8723 39.6689 40.0752C39.6689 41.2781 40.5984 42.2639 41.7783 42.3537V37.7967Z" fill="#870EFF"/>
<path d="M44.5908 45.1795V49.7365C45.7707 49.6467 46.7002 48.6609 46.7002 47.458C46.7002 46.2551 45.7707 45.2693 44.5908 45.1795Z" fill="#870EFF"/>
<path fill-rule="evenodd" clip-rule="evenodd" d="M60.7627 43.7666C60.7627 53.0864 53.2075 60.6416 43.8877 60.6416C34.5679 60.6416 27.0127 53.0864 27.0127 43.7666C27.0127 34.4468 34.5679 26.8916 43.8877 26.8916C53.2075 26.8916 60.7627 34.4468 60.7627 43.7666ZM44.5908 35.0211V33.9229C44.5908 33.1462 43.9612 32.5166 43.1846 32.5166C42.4079 32.5166 41.7783 33.1462 41.7783 33.9229V34.9805C39.0444 35.0732 36.8564 37.3187 36.8564 40.0752C36.8564 42.8317 39.0444 45.0772 41.7783 45.1699V49.6546C40.5653 49.3423 39.6689 48.2412 39.6689 46.9307C39.6689 46.154 39.0393 45.5244 38.2627 45.5244C37.486 45.5244 36.8564 46.154 36.8564 46.9307C36.8564 49.7991 39.0036 52.1661 41.7783 52.5121V53.6104C41.7783 54.387 42.4079 55.0166 43.1846 55.0166C43.9612 55.0166 44.5908 54.387 44.5908 53.6104V52.5527C47.3248 52.46 49.5127 50.2145 49.5127 47.458C49.5127 44.7015 47.3248 42.456 44.5908 42.3633V37.8786C45.8039 38.1909 46.7002 39.292 46.7002 40.6025C46.7002 41.3792 47.3298 42.0088 48.1064 42.0088C48.8831 42.0088 49.5127 41.3792 49.5127 40.6025C49.5127 37.7341 47.3656 35.3671 44.5908 35.0211Z" fill="#870EFF"/>
</svg>
