<svg width="88" height="88" viewBox="0 0 88 88" fill="none" xmlns="http://www.w3.org/2000/svg">
<rect x="0.528809" y="0.0371094" width="87.459" height="87.459" rx="17" fill="#F3E7FF"/>
<path fill-rule="evenodd" clip-rule="evenodd" d="M33.0078 28.7666H55.5078C59.65 28.7666 63.0078 32.1245 63.0078 36.2666H55.5078C51.3657 36.2666 48.0078 39.6245 48.0078 43.7666C48.0078 47.9087 51.3657 51.2666 55.5078 51.2666L63.0078 51.2666C63.0078 55.4087 59.6499 58.7666 55.5078 58.7666H33.0078C28.8657 58.7666 25.5078 55.4087 25.5078 51.2666V36.2666C25.5078 32.1245 28.8657 28.7666 33.0078 28.7666ZM35.114 34.8795C34.3479 34.7518 33.6234 35.2693 33.4957 36.0354C33.368 36.8015 33.8855 37.526 34.6516 37.6537L39.0436 38.3857C40.0131 38.5473 41.0026 38.5473 41.972 38.3857L46.364 37.6537C47.1301 37.526 47.6476 36.8015 47.5199 36.0354C47.3923 35.2693 46.6677 34.7518 45.9016 34.8795L41.5096 35.6115C40.8463 35.722 40.1693 35.722 39.506 35.6115L35.114 34.8795Z" fill="#870EFF"/>
<path fill-rule="evenodd" clip-rule="evenodd" d="M63.0078 48.4541H55.5078C52.919 48.4541 50.8203 46.3554 50.8203 43.7666C50.8203 41.1778 52.919 39.0791 55.5078 39.0791H63.0078V48.4541ZM54.1016 43.7666C54.1016 42.99 54.7312 42.3604 55.5078 42.3604H57.3828C58.1595 42.3604 58.7891 42.99 58.7891 43.7666C58.7891 44.5433 58.1595 45.1729 57.3828 45.1729H55.5078C54.7312 45.1729 54.1016 44.5433 54.1016 43.7666Z" fill="#870EFF"/>
</svg>
