<svg width="89" height="88" viewBox="0 0 89 88" fill="none" xmlns="http://www.w3.org/2000/svg">
<rect x="0.899414" y="0.0371094" width="87.459" height="87.459" rx="17" fill="#870EFF" fill-opacity="0.1"/>
<path fill-rule="evenodd" clip-rule="evenodd" d="M40.9622 30.6416H48.2956C55.3832 30.6416 61.1289 36.5179 61.1289 43.7666C61.1289 51.0153 55.3832 56.8916 48.2956 56.8916H40.9622C33.8746 56.8916 28.1289 51.0153 28.1289 43.7666C28.1289 36.5179 33.8746 30.6416 40.9622 30.6416ZM48.2956 51.2666C52.3457 51.2666 55.6289 47.9087 55.6289 43.7666C55.6289 39.6245 52.3457 36.2666 48.2956 36.2666C44.2455 36.2666 40.9622 39.6245 40.9622 43.7666C40.9622 47.9087 44.2455 51.2666 48.2956 51.2666Z" fill="#870EFF"/>
</svg>
