<svg width="617" height="432" viewBox="0 0 617 432" fill="none" xmlns="http://www.w3.org/2000/svg">
<rect x="0.828613" y="296.254" width="615.923" height="135.533" rx="67.7664" fill="#EFDFFF"/>
<path d="M317.413 384.666C312.715 379.425 302.268 363.755 299.319 364.543C296.371 365.331 285.192 381.697 280.382 387.334C292.687 386.695 305.049 385.739 317.413 384.666Z" fill="#870EFF"/>
<path d="M292.924 331.929C289.663 335.155 286 337.946 282.024 340.232C286.965 342.865 295.612 349.634 296.453 351.506C297.582 354.013 299.589 341.512 292.924 331.929Z" fill="#870EFF"/>
<path d="M382.188 344.507C379.785 355.778 383.499 364.456 385.327 360.814C388.231 355.178 392.096 350.091 396.749 345.784C391.867 345.801 386.993 345.373 382.188 344.507Z" fill="#870EFF"/>
<path d="M309.517 338.196C311.286 340.373 310.758 328.8 301.72 320.441C299.75 323.93 297.38 327.178 294.658 330.117C300.27 331.365 305.419 334.165 309.517 338.196Z" fill="#870EFF"/>
<path d="M338.621 364.791C336.74 364.791 326.603 378.902 321.71 384.312C333.076 383.315 344.425 382.32 355.828 381.719C350.155 376.062 340.499 364.791 338.621 364.791Z" fill="#870EFF"/>
<path d="M349.384 347.643C350.781 347.922 362.195 340.748 366.122 339.057C362.008 336.885 358.398 333.87 355.527 330.209C348.576 339.94 348.012 347.366 349.384 347.643Z" fill="#870EFF"/>
<path d="M257.529 367.007C256.118 366.523 245.355 382.959 239.363 387.562H275.997C270.832 382.35 258.918 367.482 257.529 367.007Z" fill="#870EFF"/>
<path d="M123.088 198.09C102.706 225.163 76.8325 261.592 82.9586 297.393C86.5106 292.218 90.8754 287.65 95.8841 283.866C97.4603 282.922 98.4218 284.618 98.6789 285.744C101.085 296.06 99.9755 317.026 102.136 327.473C107.223 323.279 112.603 319.455 118.237 316.031C119.231 315.538 120.434 316.008 120.83 317.045C125.443 330.268 128.72 343.92 130.612 357.796C136.015 352.915 142.218 349.001 148.948 346.223C131.252 333.599 143.274 308.094 154.792 298.578C155.935 297.633 158.567 297.865 156.502 299.891C145.323 310.858 136.475 334.613 153.064 344.571C155.711 343.593 158.889 341.583 159.492 345.077C201.729 347.332 243.334 340.53 250.388 341.723C253.535 342.549 256.511 343.923 259.181 345.781C276.41 339.543 289.084 335.58 298.637 317.976C260.441 290.957 217.371 320.212 190.081 316.49C188.684 316.299 188.915 314.723 190.57 314.706C207.741 314.525 216.382 309.371 231.038 306.026C257.453 279.177 298.67 194.622 233.763 190.603C207.221 189.414 181.632 200.613 164.498 220.918C163.553 222.114 161.938 220.918 162.843 219.546C176.347 199.018 204.404 187.28 228.609 186.797C228.254 172.124 226.731 132.934 226.449 121.509C183.435 132.389 149.238 163.371 123.088 198.09Z" fill="#870EFF"/>
<path d="M185.629 353.84C183.748 353.13 167.591 372.629 162.913 374.281C173.665 378.063 184.705 380.972 195.924 382.981C192.73 377.355 187.319 354.491 185.629 353.84Z" fill="#870EFF"/>
<path d="M278.9 341.927C273.621 344.283 268.221 346.359 262.722 348.145C267.063 351.093 271.126 354.432 274.859 358.119C276.626 360.338 279.593 350.719 278.9 341.927Z" fill="#870EFF"/>
<path d="M484.738 166.11C486.616 154.092 492.253 126.259 490.825 124.362C489.397 122.464 459.75 129.342 451.746 130.301C462.042 138.716 478.142 154.481 484.738 166.11Z" fill="#870EFF"/>
<path d="M161.491 357.637C162.263 361.656 163.014 365.677 163.783 369.696C165.287 368.609 167.785 366.147 170.211 363.827C166.999 362.232 164.057 360.143 161.491 357.637Z" fill="#870EFF"/>
<path d="M442.174 79.989C439.879 78.8124 416.605 97.7242 407.519 104.845C418.678 108.601 440.324 121.614 449.283 128.385C447.71 119.291 444.292 81.0789 442.174 79.989Z" fill="#870EFF"/>
<path d="M471.768 233.898C474.962 204.59 498.684 169.941 516.858 153.374C524.387 146.51 525.46 141.915 514.359 147.116C484.121 161.316 458.241 207.634 451.757 236.81C458.232 234.79 464.986 233.807 471.768 233.898Z" fill="#870EFF"/>
<path d="M501.399 177.29L494.132 186.91C497.025 191.306 504.822 206.503 506.457 210.262L511.191 205.696C516.188 195.288 524.944 178.078 523.818 176.932C522.692 175.786 509.478 176.443 501.399 177.29Z" fill="#870EFF"/>
<path d="M438.201 246.651C430.403 246.221 421.536 241.411 415.337 236.637C414.06 246.539 416.969 254.736 428.243 253.548C430.403 253.319 430.895 255.639 428.752 256.214C415.337 259.823 409.124 246.117 413.233 234.214C413.979 232.051 415.468 232.714 418.436 234.516C425.281 239.18 433.136 242.149 441.353 243.18C443.444 241.157 445.841 239.477 448.455 238.2C450.165 217.854 463.373 195.815 475.005 179.639C482.83 168.739 482.863 170.768 480.941 167.54C464.086 139.232 434.892 123.051 406.824 107.981C407.123 127.71 409.339 248.384 409.717 270.272C425.219 271.884 430.367 256.684 438.201 246.651Z" fill="#870EFF"/>
<path d="M393.975 381.697C389.936 375.666 383.285 364.319 381.896 364.506C380.507 364.693 370.303 375.59 364.272 381.303C374.173 380.928 384.087 381.06 393.975 381.697Z" fill="#870EFF"/>
<path d="M400.618 382.701C411.763 383.313 422.869 384.499 433.892 386.253C429.512 380.616 422.355 367.953 420.119 367.464C417.883 366.974 406.612 377.536 400.618 382.701Z" fill="#870EFF"/>
<path d="M378.076 321.376C372.441 322.648 367.366 324.87 361.587 323.031C360.047 324.627 358.694 326.186 357.492 327.709C369.591 340.727 384.283 342.175 401.003 341.741C408.084 335.429 415.98 330.096 424.479 325.884C408.681 328.196 393.623 317.863 378.076 321.376Z" fill="#870EFF"/>
<path d="M380.312 344.129C375.743 343.198 371.319 341.657 367.16 339.546C361.937 348.732 362.462 362.334 364.399 359.724C369.341 354.169 374.658 348.958 380.312 344.129Z" fill="#870EFF"/>
<path d="M474.345 233.804C478.669 233.653 483.009 233.466 487.33 233.354C491.951 226.012 497.404 219.228 503.581 213.137C500.49 204.928 496.784 196.965 492.494 189.314C481.41 205.773 478.892 215.58 474.345 233.804Z" fill="#870EFF"/>
<path d="M507.07 372.913C512.883 367.377 510.829 356.55 510.996 352.83C506.66 354.732 502.14 356.18 497.506 357.151C500.194 362.335 505.317 374.582 507.07 372.913Z" fill="#870EFF"/>
<path d="M523.093 398.608C521.769 397.8 512.065 401.802 506.467 403.25L531.229 413.263C525.743 406.125 524.194 399.281 523.093 398.608Z" fill="#870EFF"/>
<path d="M512.519 352.168C515.786 355.08 524.095 366.98 524.536 364.361C525.518 358.203 525.211 351.908 523.636 345.874C520.123 348.294 516.402 350.401 512.519 352.168Z" fill="#870EFF"/>
<path d="M500.555 401.276C496.799 396.108 491.556 384.367 489.885 384.228C488.213 384.088 477.711 391.047 472.205 393.621L500.555 401.276Z" fill="#870EFF"/>
<path d="M488.212 375.919C492.762 372.258 494.081 362.468 495.031 357.658C489.271 358.821 483.38 359.197 477.52 358.776C483.626 368.653 487.513 376.478 488.212 375.919Z" fill="#870EFF"/>
<path d="M507.246 315.943C491.218 319.702 459.693 322.575 445.507 316.432L436.114 322.069C451.745 323.045 465.738 340.442 475.285 355.229C483.954 355.951 492.682 355.13 501.064 352.806C508.83 350.612 516.163 347.104 522.745 342.435C519.74 332.505 514.429 323.428 507.246 315.943Z" fill="#870EFF"/>
<path d="M572.936 178.791C535.143 189.305 514.247 202.745 491.078 233.289C499.309 233.289 507.986 234.407 514.132 240.39C532.751 209.072 565.986 187.542 570.983 184.629C575.979 181.717 580.65 176.656 572.936 178.791Z" fill="#870EFF"/>
<path d="M527.246 415.35C451.925 383.171 391.165 381.981 317.199 388.484C254.636 393.987 178.035 396.153 123.803 358.65C105.221 345.795 85.3449 324.554 80.4402 302.079C78.4473 299.867 76.6692 297.471 75.1302 294.922C71.8406 314.177 70.379 371.671 135.72 402.48C226.781 445.416 357.415 412.48 405.25 410.11C448.348 407.972 493.005 414.187 513.616 421.495C568.823 441.073 559.5 429.125 527.246 415.35Z" fill="#870EFF"/>
<path d="M555.679 236.568C546.026 242.529 523.908 243.275 512.243 243.688C507.338 235.891 484.192 236.76 481.78 236.85C469.59 237.305 454.065 235.869 444.356 244.818C433.7 254.638 429.161 277.01 407.27 273.167C401.856 272.217 399.361 268.21 384.724 272.586C368.06 277.566 360.849 299.636 358.965 307.118C357.546 312.749 356.953 317.302 360.083 318.99C367.596 323.056 373.722 318.171 381.388 317.469C395.384 316.187 408.46 324.06 422.42 322.78C429.935 322.081 436.575 318.26 442.785 314.286C448.26 310.782 455.062 304.821 451.712 297.658C450.834 295.785 453.274 294.989 454.191 296.663C457.796 303.25 453.534 309.815 448.422 314.23C459.696 317.349 496.933 317.743 510.253 311.749C533.449 301.322 522.164 266.301 517.036 256.692C521.488 258.649 542.851 264.355 552.733 254.023C562.615 243.691 565.471 230.523 555.679 236.568ZM373.607 296.501C370.337 298.98 369.052 292.971 370.357 290.866C372.657 287.152 376.452 294.34 373.607 296.501ZM402.502 300.165C397.544 300.693 400.23 293.192 404.117 293.382C406.75 293.513 406.015 299.79 402.502 300.165ZM441.958 270.35C440.179 268.979 437.778 268.731 435.756 269.71C434.275 270.451 432.629 269.134 433.652 267.718C436.357 263.953 442.075 264.34 444.25 268.433C445.616 271.102 444.023 272.265 441.958 270.35ZM470.252 271.815C467.663 270.594 464.653 270.657 462.116 271.982C461.026 272.583 459.492 271.982 459.917 270.649C461.527 265.619 470.274 264.755 473.522 270.649C474.542 272.505 472.655 273.525 470.137 271.815H470.252Z" fill="#870EFF"/>
<path d="M454.983 375.954C452.993 375.381 445.081 383.469 440.17 387.228C449.05 388.655 457.881 390.346 466.662 392.3C462.715 387.546 456.989 376.527 454.983 375.954Z" fill="#870EFF"/>
<path d="M133.116 360.269C141.95 365.568 151.266 370.016 160.941 373.552C159.608 371.149 156.659 351.44 156.17 347.251C147.765 350.168 139.955 354.578 133.116 360.269Z" fill="#870EFF"/>
<path d="M83.9497 302.14C86.9008 314.157 91.1098 320.026 98.4824 329.701C96.8734 315.844 96.0449 301.907 96.0007 287.956C91.2255 291.984 87.1533 296.777 83.9497 302.14Z" fill="#870EFF"/>
<path d="M100.332 332.047C107.827 341.289 116.647 349.374 126.504 356.04C124.34 344.002 121.542 332.086 118.12 320.343C115.669 321.938 102.048 333.003 100.332 332.047Z" fill="#870EFF"/>
<path d="M193.698 94.9747C192.301 95.1481 192.421 122.011 191.63 131.443C202.515 125.56 214.094 121.066 226.097 118.065C221.014 110.458 195.333 94.768 193.698 94.9747Z" fill="#870EFF"/>
<path d="M197.841 379.615C199.232 378.535 200.375 377.171 201.195 375.612C199.341 375.27 197.509 374.818 195.708 374.26C196.038 376.062 197.304 379.71 197.841 379.615Z" fill="#870EFF"/>
<path d="M215.052 363.344C212.159 362.93 202.822 379.578 198.563 383.446C210.443 385.453 222.433 386.752 234.467 387.336C228.73 382.091 217.947 363.754 215.052 363.344Z" fill="#870EFF"/>
<path d="M104.355 218.642C97.9274 217.213 79.9321 210.713 77.8837 210.537C75.8353 210.361 83.107 242.117 84.9851 254.445C90.1921 241.875 96.6834 229.878 104.355 218.642Z" fill="#870EFF"/>
<path d="M187.529 133.703C179.357 129.947 159.987 117.714 157.882 118.672C155.778 119.631 159.196 143.417 159.648 153.431C168.319 146.016 177.652 139.412 187.529 133.703Z" fill="#870EFF"/>
<path d="M126.469 187.966C120.041 186.569 98.3816 176.695 97.3475 177.766C96.3134 178.836 104.334 206.493 106.235 215.83C112.548 206.247 119.275 196.91 126.469 187.966Z" fill="#870EFF"/>
<path d="M83.3924 258.959C78.4316 256.947 66.5875 248.736 66.0118 250.854C64.2652 257.282 73.3955 285.461 79.1639 295.045C77.7957 282.851 79.2422 270.506 83.3924 258.959Z" fill="#870EFF"/>
<path d="M155.497 157.013C145.914 154.007 121.681 143.655 120.607 144.996C119.534 146.338 127.239 177.136 128.198 185.766C136.546 175.495 145.673 165.883 155.497 157.013Z" fill="#870EFF"/>
<path d="M375.326 0.315456C335.705 -0.0310502 290.782 0.595041 254.727 2.51505C229.329 3.87317 228.457 16.061 228.736 38.5113C229.34 86.2511 231.919 136.187 232.758 184.55C232.786 186.202 235.704 186.185 235.67 184.55C234.658 137.582 232.895 87.2291 232.361 38.6817C232.151 19.3478 231.892 6.71565 253.987 6.00855C294.248 4.72006 333.326 3.06285 374.943 3.88725C399.8 4.37626 397.43 28.3104 397.488 45.2187C397.751 119.559 400.627 193.857 401.359 268.191C401.359 269.637 402.924 270.54 404.176 269.818C404.757 269.482 405.115 268.862 405.115 268.191C404.402 194.214 403.34 119.997 401.189 46.0821C400.596 25.4151 403.659 0.561451 375.326 0.315456Z" fill="#191919"/>
<path d="M272.714 161.456C272.118 167.258 273.208 209.137 274.142 221.823C274.463 226.199 275.737 226.492 278.82 226.501C302.229 226.574 332.063 224.939 356.151 224.285C360.583 224.164 361.785 224.564 361.785 218.835C361.785 201.024 361.785 181.561 360.946 163.499C360.706 158.315 360.139 157.996 355.798 158.033C329.777 158.248 303.755 158.851 277.733 159.198C276.095 159.223 272.951 159.125 272.714 161.456ZM357.394 161.68C357.545 180.637 358.822 201.96 358.233 220.487C349.477 221.219 294.233 222.929 277.445 222.929C276.355 204.14 276.073 179.586 276.467 162.809C301.854 162.526 331.224 161.512 357.394 161.68Z" fill="#191919"/>
<path d="M346.851 149.463C346.851 152.13 350.999 151.791 350.965 149.142C350.831 138.134 351.415 126.597 347.922 116.038C337.603 84.8519 293.609 89.2622 283.405 118.668C279.417 130.166 279.624 142.84 280.87 154.835C281.032 156.176 282.585 156.84 283.666 156.029C284.127 155.683 284.389 155.132 284.366 154.556C284.104 144.43 283.528 134.263 286.001 124.347C293.474 94.3877 333.733 88.907 343.679 116.343C347.477 126.821 346.795 138.528 346.851 149.463Z" fill="#191919"/>
<path d="M313.897 190.84C313.237 193.864 311.885 202.882 311.697 205.624C314.46 205.878 317.241 205.878 320.004 205.624C319.475 202.882 318.461 194.99 317.692 190.594C322.67 190.18 325.207 178.797 315.68 178.909C306.152 179.021 307.433 190.312 313.897 190.84Z" fill="#191919"/>
<path d="M350.062 326.935C344.931 326.915 317.051 326.432 312.892 327.103C310.899 327.424 311.517 330.062 313.191 330.353C316.947 331.009 345.132 330.772 349.903 330.881C352.429 330.928 352.597 326.943 350.062 326.935Z" fill="#191919"/>
<path d="M582.391 327.69C569.426 327.131 537.3 328.037 522.74 328.084C520.015 328.084 520.485 331.298 523.246 331.298C537.938 331.298 564.393 331.128 582.109 331.298C580.08 353.167 577.824 374.98 576.36 396.905C576.232 398.07 577.414 398.937 578.488 398.465C578.946 398.263 579.275 397.849 579.37 397.358C582.41 377.236 584.4 351.893 585.798 331.578C585.96 329.381 585.996 327.858 582.391 327.69Z" fill="#191919"/>
<path d="M58.693 330.839C61.4737 330.728 64.33 330.708 67.0547 330.501C69.5171 330.314 69.9473 327.365 67.0547 327.29C64.1621 327.214 61.1857 327.106 58.4302 327.29C54.4141 327.569 54.6406 327.913 55.1044 332.231C57.6478 355.83 64.2349 379.577 66.9431 403.061C67.7507 410.067 71.912 408.189 71.4146 405.107C67.3931 380.281 63.0472 355.564 58.693 330.839Z" fill="#191919"/>
<path d="M443.837 326.807C438.857 326.765 433.88 326.791 428.919 327.126C425.498 327.358 425.876 330.885 429.408 330.885C434.369 330.885 439.346 330.664 444.287 330.301C447.051 330.094 447.219 326.835 443.837 326.807Z" fill="#191919"/>
<path d="M376.028 7.6775C359.12 7.3226 268.805 8.7647 257.554 9.36831C237.73 10.436 234.612 17.6351 235.984 40.5018C254.96 40.1244 386.494 38.4726 393.369 38.4726C395.231 23.4036 393.107 8.0381 376.028 7.6775Z" fill="#191919"/>
<path d="M252.59 285.998C248.752 292.365 244.256 298.31 239.175 303.737C283.684 300.352 302.076 310.707 310.57 323.613C314.421 323.481 339.165 323.37 352.108 323.613C353.305 322.387 354.338 321.01 355.182 319.519C349.657 309.597 357.848 292.41 362.828 283.821C348.352 284.327 275.135 285.512 252.59 285.998Z" fill="#191919"/>
<g filter="url(#filter0_d_186_114)">
<rect x="45.293" y="30.5332" width="73.5" height="73.5" rx="23" fill="#860EFF"/>
</g>
<path d="M80.4598 75.1999H83.6265V65.7H80.4598V75.1999ZM82.0431 62.5333C82.4917 62.5333 82.868 62.3813 83.172 62.0773C83.476 61.7733 83.6275 61.3975 83.6265 60.95C83.6254 60.5024 83.4734 60.1266 83.1705 59.8226C82.8675 59.5186 82.4917 59.3666 82.0431 59.3666C81.5945 59.3666 81.2187 59.5186 80.9158 59.8226C80.6129 60.1266 80.4609 60.5024 80.4598 60.95C80.4587 61.3975 80.6107 61.7738 80.9158 62.0789C81.2209 62.3839 81.5966 62.5354 82.0431 62.5333ZM82.0431 83.1166C78.3751 82.193 75.3467 80.0882 72.958 76.8023C70.5692 73.5163 69.3754 69.8683 69.3765 65.8583V56.2L82.0431 51.45L94.7098 56.2V65.8583C94.7098 69.8694 93.516 73.5179 91.1283 76.8039C88.7406 80.0898 85.7122 82.1941 82.0431 83.1166Z" fill="white"/>
<path d="M44.2798 64.0957H15.2661V150.684L75.787 211.205" stroke="black" stroke-dasharray="5 5"/>
<defs>
<filter id="filter0_d_186_114" x="27.293" y="24.5332" width="105.5" height="105.5" filterUnits="userSpaceOnUse" color-interpolation-filters="sRGB">
<feFlood flood-opacity="0" result="BackgroundImageFix"/>
<feColorMatrix in="SourceAlpha" type="matrix" values="0 0 0 0 0 0 0 0 0 0 0 0 0 0 0 0 0 0 127 0" result="hardAlpha"/>
<feMorphology radius="2" operator="erode" in="SourceAlpha" result="effect1_dropShadow_186_114"/>
<feOffset dx="-2" dy="10"/>
<feGaussianBlur stdDeviation="9"/>
<feComposite in2="hardAlpha" operator="out"/>
<feColorMatrix type="matrix" values="0 0 0 0 0.527451 0 0 0 0 0.054902 0 0 0 0 1 0 0 0 0.28 0"/>
<feBlend mode="normal" in2="BackgroundImageFix" result="effect1_dropShadow_186_114"/>
<feBlend mode="normal" in="SourceGraphic" in2="effect1_dropShadow_186_114" result="shape"/>
</filter>
</defs>
</svg>
