<svg width="41" height="41" viewBox="0 0 41 41" fill="none" xmlns="http://www.w3.org/2000/svg">
<circle cx="20.1988" cy="20.1721" r="19.6729" stroke="black"/>
<g clip-path="url(#clip0_277_112)">
<path fill-rule="evenodd" clip-rule="evenodd" d="M26.1288 13.233C26.3553 13.1376 26.6032 13.1047 26.8468 13.1377C27.0903 13.1707 27.3206 13.2684 27.5136 13.4206C27.7065 13.5728 27.8552 13.7739 27.9441 14.003C28.033 14.2322 28.0588 14.481 28.0189 14.7235L25.9399 27.3341C25.7383 28.5505 24.4036 29.2481 23.288 28.6421C22.3548 28.1352 20.9688 27.3542 19.7222 26.5393C19.0988 26.1314 17.1894 24.8251 17.4241 23.8956C17.6258 23.1009 20.8341 20.1144 22.6674 18.3388C23.387 17.6412 23.0588 17.2388 22.2091 17.8805C20.0989 19.4736 16.7109 21.8964 15.5908 22.5784C14.6026 23.1797 14.0874 23.2824 13.4714 23.1797C12.3476 22.9927 11.3053 22.7031 10.4547 22.3501C9.30518 21.8735 9.3611 20.2931 10.4538 19.833L26.1288 13.233Z" fill="black"/>
</g>
<defs>
<clipPath id="clip0_277_112">
<rect width="22" height="22" fill="white" transform="translate(8 9.17214)"/>
</clipPath>
</defs>
</svg>
