<svg width="41" height="42" viewBox="0 0 41 42" fill="none" xmlns="http://www.w3.org/2000/svg">
<circle cx="20.1988" cy="21.0915" r="19.6729" stroke="black"/>
<path d="M29.3183 15.4244C28.647 15.7296 27.9233 15.9301 27.1735 16.026C27.9408 15.5639 28.5336 14.8315 28.8126 13.951C28.089 14.3869 27.2869 14.692 26.4412 14.8664C25.7524 14.1166 24.7847 13.6807 23.6861 13.6807C21.6373 13.6807 19.9633 15.3547 19.9633 17.421C19.9633 17.7174 19.9982 18.0051 20.0592 18.2754C16.9554 18.1184 14.1916 16.6276 12.352 14.3695C12.0294 14.9187 11.8463 15.5639 11.8463 16.2439C11.8463 17.543 12.5002 18.6939 13.5116 19.3478C12.8926 19.3478 12.3171 19.1734 11.8115 18.9118V18.938C11.8115 20.7514 13.1018 22.2685 14.8106 22.6085C14.2621 22.7593 13.686 22.7802 13.128 22.6695C13.3648 23.4128 13.8285 24.0631 14.4541 24.5291C15.0796 24.9952 15.8355 25.2534 16.6154 25.2677C15.2934 26.3143 13.6546 26.8801 11.9684 26.8719C11.672 26.8719 11.3755 26.8544 11.0791 26.8196C12.7356 27.8832 14.706 28.5022 16.8159 28.5022C23.6861 28.5022 27.4613 22.8003 27.4613 17.8569C27.4613 17.6912 27.4613 17.5343 27.4525 17.3686C28.1849 16.8455 28.8126 16.1829 29.3183 15.4244Z" fill="black"/>
</svg>
